# xmcd
# 
# Track frame offsets:
#     150
#     14005
#     34563
#     47854
#     63953
#     79944
#     91705
#     107415
#     136723
#     151624
#     176684
#     191108
#     209805
#     223556
# 
# Disc length: 3264
# 
# Revision: 4
# Processed by: cddbd v1.5.2PL0 Copyright (c) Steve Scherf et al.
# Submitted via: BonkEnc v1.0
# 
DISCID=b80cbe0e
DTITLE=Various Artist - Solaris 2
DYEAR=2003
DGENRE=New Age
TTITLE0=Various Artist - Secret Garden
TTITLE1=Various Artist - Mike Oldfield
TTITLE2=Various Artist - Clannad and Bono
TTITLE3=Various Artist - The Wind Element
TTITLE4=Various Artist - Jules Waters
TTITLE5=Various Artist - Yanni
TTITLE6=Various Artist - Jim Brickman
TTITLE7=Various Artist - Delirium feat Sarah Mclachlan
TTITLE8=Various Artist - Balligomingo
TTITLE9=Various Artist - SOlaris
TTITLE10=Various Artist - The Wind Element
TTITLE11=Various Artist - The Taliesin Orchestra
TTITLE12=Various Artist - Mitchell Kinsale
TTITLE13=Various Artist - Solaris
EXTD=YEAR: 2003
EXTT0=
EXTT1=
EXTT2=
EXTT3=
EXTT4=
EXTT5=
EXTT6=
EXTT7=
EXTT8=
EXTT9=
EXTT10=
EXTT11=
EXTT12=
EXTT13=
PLAYORDER=
